# xmcd
#
# Track frame offsets:
#	150
#	10507
#	25448
#	41079
#	54657
#	67283
#	76625
#	95839
#	110928
#	126970
#	141369
#	157597
#	173287
#	187884
#	205617
#
# Disc length: 2893 seconds
#
# Revision: 0
# Processed by: cddbd v1.5.2PL0 Copyright (c) Steve Scherf et al.
# Submitted via: EasyCDDAExtractor 2010.4.0.0
#
DISCID=c40b4b0f
DTITLE=Mary Broussard and Sweet La La - Creole Royalty
DYEAR=1900
DGENRE=blues
TTITLE0=Mary Jane hop
TTITLE1=La robe barrée
TTITLE2=Get down
TTITLE3=Tu peut cogner
TTITLE4=Fais pas tout ça
TTITLE5=Sundown special
TTITLE6=J'ai passe devant ta porte
TTITLE7=Petite oula grosse
TTITLE8=Jolie bassette
TTITLE9=Dimanche après midi
TTITLE10=Allons danser
TTITLE11=Chère toute toute
TTITLE12=Bayou Pon Pon
TTITLE13=Choupique special
TTITLE14=Home sweet home
EXTD=
EXTT0=
EXTT1=
EXTT2=
EXTT3=
EXTT4=
EXTT5=
EXTT6=
EXTT7=
EXTT8=
EXTT9=
EXTT10=
EXTT11=
EXTT12=
EXTT13=
EXTT14=
PLAYORDER=
